HIERARCHY
ROOT Hips
{
  OFFSET 36.5326 12.0525 38.6313
  CHANNELS 6 Xposition Yposition Zposition Zrotation Xrotation Yrotation
  JOINT ToSpine
  {
    OFFSET -0.0105055 1.38907 -7.13956
    CHANNELS 3 Zrotation Xrotation Yrotation
    JOINT Spine
    {
      OFFSET 0.0105055 10 1
      CHANNELS 3 Zrotation Xrotation Yrotation
      JOINT Spine1
      {
        OFFSET 0 12 1.60637
        CHANNELS 3 Zrotation Xrotation Yrotation
        JOINT Neck
        {
          OFFSET 0 27 2.26658
          CHANNELS 3 Zrotation Xrotation Yrotation
          JOINT Head
          {
            OFFSET 0 9 2.12705
            CHANNELS 3 Zrotation Xrotation Yrotation
            End Site
            {
              OFFSET 0 11 2
            }
          }
        }
        JOINT LeftShoulder
        {
          OFFSET 8 19.6109 2.86452
          CHANNELS 3 Zrotation Xrotation Yrotation
          JOINT LeftArm
          {
            OFFSET 12 1 0.681055
            CHANNELS 3 Zrotation Xrotation Yrotation
            JOINT LeftForeArm
            {
              OFFSET 19 0 -1.52608
              CHANNELS 3 Zrotation Xrotation Yrotation
              JOINT LeftHand
              {
                OFFSET 23 0 0
                CHANNELS 3 Zrotation Xrotation Yrotation
                End Site
                {
                  OFFSET 10 0 0
                }
              }
            }
          }
        }
        JOINT RightShoulder
        {
          OFFSET -8 19.6109 2.86452
          CHANNELS 3 Zrotation Xrotation Yrotation
          JOINT RightArm
          {
            OFFSET -12 1 0.681055
            CHANNELS 3 Zrotation Xrotation Yrotation
            JOINT RightForeArm
            {
              OFFSET -19 0 -1.52608
              CHANNELS 3 Zrotation Xrotation Yrotation
              JOINT RightHand
              {
                OFFSET -23 0 0
                CHANNELS 3 Zrotation Xrotation Yrotation
                End Site
                {
                  OFFSET -10 0 0
                }
              }
            }
          }
        }
      }
    }
  }
  JOINT LeftUpLeg
  {
    OFFSET 9 -7.17245 0
    CHANNELS 3 Zrotation Xrotation Yrotation
    JOINT LeftLeg
    {
      OFFSET 0 -44.1113 0
      CHANNELS 3 Zrotation Xrotation Yrotation
      JOINT LeftFoot
      {
        OFFSET 0 -36.1829 0
        CHANNELS 3 Zrotation Xrotation Yrotation
        JOINT LeftToeBase
        {
          OFFSET 0 -4.84184 13
          CHANNELS 3 Zrotation Xrotation Yrotation
          End Site
          {
            OFFSET 0 1 6
          }
        }
      }
    }
  }
  JOINT RightUpLeg
  {
    OFFSET -9 -7.17245 0
    CHANNELS 3 Zrotation Xrotation Yrotation
    JOINT RightLeg
    {
      OFFSET 0 -44.0551 0
      CHANNELS 3 Zrotation Xrotation Yrotation
      JOINT RightFoot
      {
        OFFSET 0 -36.1469 0
        CHANNELS 3 Zrotation Xrotation Yrotation
        JOINT RightToeBase
        {
          OFFSET 0 -4.92256 13
          CHANNELS 3 Zrotation Xrotation Yrotation
          End Site
          {
            OFFSET 0 1 6
          }
        }
      }
    }
  }
}
MOTION
Frames:	21
Frame Time:	0.0333333
36.5311 12.0521 38.6271 -0.714615 81.253 7.78647 0 0 0 4.41667 -3.11771 0.476359 -4.47108 -1.52586 0.394845 12.6843 -60.1728 4.84065 -4.33817 17.1094 1.82659 -6.81182 1.67795 -8.05252 -25.6768 8.93275 6.09837 42.4153 -27.0778 -116.484 6.79295 -0.0359104 -0.603788 5.3855 1.66412 9.05012 40.6504 3.96554 -22.1782 -43.6672 -32.0389 119.064 -14.6999 -0.462711 3.58555 9.21479 4.03957 6.40918 1.34974 24.5191 -19.3106 16.8425 -24.8798 3.73983 1.56946 -5.55336 -6.25439 -3.37188 11.2973 -12.692 2.98834 16.0698 -3.77552 -14.182 -21.348 -2.68503 6.17506 -23.9958 -4.2321 
36.5193 12.046 38.6095 -0.938251 81.2087 7.86189 0 0 0 4.30422 -3.04922 0.544437 -4.18373 -1.56635 0.446001 12.9353 -59.4259 4.90497 -4.92005 16.0856 2.07314 -7.04343 1.69795 -8.02589 -25.4515 9.00789 6.04964 41.9704 -26.8608 -116.671 6.85352 -0.0513421 -0.857736 5.24328 1.64823 9.05012 40.3717 3.68612 -22.1635 -44.6845 -32.7025 118.646 -13.7463 -0.412331 3.41616 9.35338 4.18191 6.77254 1.16042 24.4414 -19.2635 17.5668 -24.4582 3.83627 1.68995 -6.58698 -6.85387 -3.34282 11.2348 -12.6112 2.82855 16.3221 -3.57425 -13.5512 -21.9175 -2.63617 5.97706 -23.149 -4.09535 
36.5027 12.0338 38.5986 -0.180945 81.1672 7.3267 0 0 0 3.938 -3.26741 0.501258 -4.03741 -1.0638 0.423189 14.7632 -56.964 5.25178 -7.38609 12.3154 2.90098 -6.58235 1.68969 -8.29614 -25.439 8.66778 5.94182 42.0706 -26.924 -116.641 6.70649 -0.0438052 -0.747864 5.46978 1.62882 8.71826 39.7113 3.14704 -21.9032 -45.8742 -33.46 118.137 -12.6067 -0.359633 3.2599 9.54528 4.09503 7.19924 0.898835 24.6927 -20.2253 17.1606 -24.9935 3.83065 1.57553 -4.93873 -6.33872 -3.44152 11.3466 -12.7766 2.98882 16.2429 -3.7945 -14.0818 -21.445 -2.67909 6.20485 -24.0178 -3.99235 
36.5153 12.039 38.6092 -0.190856 81.1863 7.392 0 0 0 4.04246 -3.45759 0.526598 -4.24282 -0.636222 0.47152 14.6947 -57.6748 5.25065 -7.14157 12.8581 2.73836 -6.02327 1.62208 -8.23361 -25.8904 8.63411 5.74882 42.1864 -26.9364 -116.557 6.73792 -0.0333791 -0.567204 5.48714 1.56895 8.2615 39.9505 3.4783 -21.4782 -45.3212 -33.06 118.344 -12.7588 -0.406054 3.62416 9.53345 4.04459 7.16234 0.944489 24.7253 -20.3642 16.8497 -25.2229 3.79598 1.45075 -4.03323 -5.79134 -3.40749 11.3822 -12.7 3.02357 16.0825 -3.97849 -14.4862 -21.0766 -2.70861 6.3493 -24.7525 -4.36535 
36.5112 12.0451 38.6129 -0.274977 81.1984 7.54309 0 0 0 3.56384 -3.18039 0.430373 -3.38354 -1.19157 0.246115 13.5478 -57.0871 4.81259 -6.60729 12.504 2.59472 -6.8758 1.71738 -8.275 -25.2798 8.70711 6.19094 41.7247 -26.9212 -116.918 6.68556 -0.0384246 -0.655726 4.93074 1.56651 8.6886 40.4537 3.91805 -21.6686 -44.0896 -32.1671 118.793 -14.0047 -0.467501 3.80538 9.54741 3.97619 7.09155 0.942282 24.7939 -20.4223 16.8477 -25.1852 3.78957 1.46324 -4.13776 -5.84139 -3.40719 11.3567 -12.762 2.97625 16.2092 -3.96498 -13.8409 -21.5782 -2.65016 6.11273 -23.6255 -3.91146 
36.5098 12.0618 38.626 0.104474 81.1852 7.14176 0 0 0 3.47734 -3.29329 0.453654 -3.42532 -0.826181 0.305672 14.5037 -57.7004 5.35621 -7.20958 12.9672 2.89576 -6.8909 1.66821 -7.93112 -25.0662 8.79572 5.68512 41.7611 -26.8507 -116.833 6.35556 -0.0132169 -0.238571 5.19782 1.55961 8.41652 39.752 3.56205 -21.3426 -45.2374 -32.9582 118.349 -12.8222 -0.423639 3.77016 9.44992 4.05999 7.0116 0.966611 24.6117 -20.2573 16.8836 -24.9729 3.76479 1.43762 -4.40782 -5.69121 -3.48981 11.3281 -12.803 2.94765 16.2839 -3.85614 -13.5698 -21.6882 -2.6112 6.05604 -23.4792 -4.13329 
36.4933 12.0347 38.6178 -0.022114 81.2023 7.29259 0 0 0 3.19643 -3.11839 0.385187 -2.9333 -1.23738 0.159195 13.5379 -57.5532 4.94226 -6.58082 13.0657 2.6457 -7.56248 1.72904 -7.87829 -24.4288 8.88427 5.98214 41.3352 -26.734 -117.086 6.18711 -0.0140688 -0.254085 4.96244 1.57012 8.69073 39.973 3.79444 -21.5861 -44.995 -32.8135 118.458 -12.6387 -0.429249 3.87544 9.56864 4.04625 7.21666 0.894456 24.6532 -20.4886 17.0017 -25.1001 3.81135 1.46789 -4.39619 -5.84223 -3.45839 11.3068 -12.7764 2.92658 16.3166 -3.7675 -13.5385 -21.7059 -2.60726 6.09875 -23.612 -4.02989 
36.4841 12.0303 38.615 -0.0445852 81.237 7.28706 0 0 0 2.87476 -3.09569 0.409199 -2.42172 -1.33114 0.108984 13.1031 -57.705 4.87123 -6.45655 13.2769 2.64617 -7.49075 1.73652 -7.97537 -24.7074 8.87639 6.06974 41.3759 -26.7647 -117.077 6.48903 -0.030221 -0.525617 4.69441 1.54219 8.69745 40.1658 3.90116 -21.6106 -45.1324 -32.877 118.384 -12.869 -0.40976 3.63178 9.5253 3.98146 7.07416 0.938249 24.7016 -20.3588 16.9225 -25.0108 3.77947 1.53723 -4.56227 -6.17475 -3.43694 11.282 -12.7265 2.92873 16.2709 -3.91523 -13.7816 -21.6065 -2.64205 6.13771 -23.6688 -3.76781 
36.4709 12.0433 38.6106 0.104553 81.207 7.06655 0 0 0 2.58689 -3.12902 0.508727 -2.022 -1.12307 0.164714 12.6822 -58.0843 4.83049 -6.21797 13.4947 2.59372 -7.79548 1.72787 -7.7193 -24.42 8.88693 5.63976 41.2833 -26.6448 -117.057 6.14688 0.000148996 0.00476324 4.39045 1.47508 8.42905 40.3445 4.01644 -21.4163 -45.2551 -32.9942 118.357 -12.7549 -0.408349 3.65243 9.45791 4.0819 7.02334 0.972159 24.5973 -20.2392 16.8372 -24.9348 3.74837 1.52632 -4.66941 -6.11085 -3.43496 11.2641 -12.7048 2.89393 16.3264 -4.00455 -13.9855 -21.4978 -2.66779 6.22894 -24.0502 -3.81811 
36.4722 12.0384 38.6098 0.410734 81.2135 6.90877 0 0 0 2.10315 -2.80241 0.331913 -1.28677 -1.74981 -0.109754 11.7147 -57.6973 4.42393 -5.66114 13.2837 2.39042 -8.53605 1.7677 -7.50145 -23.8341 8.9546 5.83408 41.0664 -26.6122 -117.208 6.35561 -0.0253306 -0.455208 4.04094 1.49947 8.93036 40.4604 4.00598 -21.7086 -45.3676 -32.9819 118.255 -12.8863 -0.404871 3.58373 9.51225 4.01951 7.17376 0.8805 24.6682 -20.4441 17.0722 -25.0155 3.81407 1.48262 -4.20782 -5.93118 -3.48102 11.3258 -12.7716 2.95006 16.2762 -3.97735 -13.845 -21.5812 -2.6509 6.12388 -23.7147 -4.03689 
36.4677 12.0266 38.6099 0.620399 81.2304 6.79545 0 0 0 1.93868 -3.05112 0.285518 -1.17794 -1.33212 -0.163326 11.9976 -58.3654 4.67026 -5.63659 13.8078 2.43194 -8.46628 1.7231 -7.27115 -23.7755 8.85762 5.48846 41.0391 -26.5304 -117.164 5.96865 -0.00397566 -0.0775448 4.0841 1.48023 8.73231 40.3493 3.95385 -21.4513 -45.2828 -32.9554 118.309 -12.8295 -0.400479 3.55953 9.44219 4.00201 6.95027 0.956071 24.6229 -20.3454 16.8128 -25.0989 3.76828 1.55332 -4.1711 -6.28019 -3.51318 11.3355 -12.8387 2.95861 16.3097 -4.01657 -13.5971 -21.7918 -2.62888 6.02058 -23.2727 -3.96231 
36.4454 12.0219 38.6035 0.661932 81.2526 6.74119 0 0 0 1.42693 -3.07015 0.345773 -0.362847 -1.33214 -0.207362 10.6825 -58.8397 4.12577 -4.98969 14.2743 2.08546 -9.42449 1.7584 -6.92679 -22.7823 8.9321 4.89312 40.8045 -26.3626 -117.219 5.99332 0.000588998 0.0177534 3.55452 1.40561 8.59246 40.8885 4.31189 -21.3898 -44.6271 -32.4859 118.552 -13.2123 -0.424343 3.66137 9.42204 4.00717 6.90865 0.961716 24.5974 -20.4201 16.7464 -25.084 3.75079 1.48774 -4.31089 -5.94951 -3.47748 11.2908 -12.7873 2.99313 16.2744 -4.14058 -14.3314 -21.3863 -2.72018 6.32534 -24.4733 -3.9197 
36.4416 12.0251 38.5891 0.284077 81.189 7.02399 0 0 0 1.16458 -2.73457 0.434084 0.308766 -1.92654 -0.211092 8.98036 -58.5985 3.26206 -4.29761 14.4928 1.66283 -10.5008 1.87055 -6.99087 -22.0726 9.04611 5.13221 40.7899 -26.3145 -117.192 6.25232 -0.020246 -0.366819 3.10987 1.3929 8.89761 40.8956 4.11129 -21.8033 -44.9565 -32.6861 118.407 -12.819 -0.381654 3.39726 9.54623 4.08144 7.15384 0.87137 24.6202 -20.5781 17.1757 -24.9739 3.83104 1.39717 -4.65441 -5.46523 -3.43318 11.3265 -12.7695 2.96222 16.3274 -4.00906 -14.0909 -21.5335 -2.69198 6.24127 -24.0919 -3.79534 
36.4662 12.0354 38.6087 0.676449 81.1846 6.64042 0 0 0 1.27453 -3.05253 0.433374 0.0199847 -1.33991 -0.160019 9.8628 -59.6984 3.83347 -4.70428 15.3172 1.91283 -9.96906 1.783 -6.7773 -22.5207 9.14611 5.01901 40.9848 -26.3158 -117.033 5.84816 0.00925057 0.177903 3.47972 1.40451 8.64748 40.4599 4.08212 -21.8159 -44.5647 -32.3613 118.522 -12.9838 -0.390366 3.42984 9.40153 4.14496 6.88008 0.95078 24.5208 -20.3274 16.6854 -25.1583 3.74817 1.44379 -4.26265 -5.73716 -3.49874 11.2991 -12.7818 2.87896 16.4512 -3.89285 -13.5369 -21.8642 -2.62616 6.07482 -23.5879 -4.22408 
36.4713 12.0408 38.5935 0.746192 81.1594 6.55582 0 0 0 1.26177 -2.87245 0.350541 0.0878709 -1.62696 -0.252904 9.4723 -59.8802 3.69501 -4.65111 15.6087 1.87932 -9.75458 1.75241 -6.71617 -22.6433 9.05505 5.94053 40.3991 -26.158 -117.385 5.74076 0.000651945 0.00922919 3.50554 1.45107 9.0248 40.2682 4.27033 -22.5127 -44.0153 -31.8893 118.668 -12.8554 -0.38801 3.44769 9.42303 4.17353 6.94062 0.929479 24.564 -20.5535 16.2542 -25.5212 3.70493 1.4334 -3.39442 -5.75599 -3.51988 11.3388 -12.8904 2.9853 16.4221 -3.94056 -14.2659 -21.4966 -2.72178 6.21201 -24.1535 -4.25113 
36.4683 12.0212 38.6036 0.677198 81.1973 6.69197 0 0 0 0.952455 -2.72967 0.224413 0.622149 -2.09142 -0.453192 8.40373 -59.6166 3.11805 -4.43492 16.0596 1.69228 -9.47676 1.77059 -6.96904 -23.14 8.78224 7.19068 40.2726 -26.2274 -117.547 5.37025 -0.00392145 -0.0371915 3.38871 1.53731 9.88121 39.9538 3.92839 -23.7909 -44.0106 -32.1141 118.824 -12.9716 -0.33483 2.9335 9.47102 4.10195 7.02771 0.882659 24.6382 -20.8045 16.4543 -25.3417 3.7232 1.27276 -3.57875 -4.97155 -3.52291 11.3258 -13.013 3.05147 16.4405 -3.94165 -14.1531 -21.59 -2.7119 6.13515 -23.8712 -4.31565 
36.4542 12.0159 38.6495 0.128004 81.2636 7.26172 0 0 0 1.16495 -3.63956 0.267035 0.300173 -0.449615 -0.382889 9.43871 -61.5516 3.75619 -4.9592 17.4662 1.91323 -8.81994 1.62428 -6.45916 -24.1229 8.28618 7.57926 41.3359 -27.0898 -117.371 4.26786 0.0146482 0.434442 3.26859 1.36234 8.47649 40.6636 3.76491 -23.1606 -45.2684 -32.8195 118.233 -12.1589 -0.234125 2.22081 9.56361 4.0484 7.14813 0.843166 24.6117 -20.7517 17.0023 -24.8855 3.77821 1.31281 -4.64569 -5.04381 -3.33836 11.2914 -12.8511 3.05731 16.3522 -4.32321 -13.9963 -21.6495 -2.68914 5.90004 -23.1638 -5.00963 
36.4654 11.9584 38.7053 -0.59678 81.2372 8.07586 0 0 0 1.44687 -3.56081 0.246009 0.0527532 -0.704316 -0.404291 9.60463 -61.2056 3.79193 -4.93437 17.2335 1.91866 -8.46159 1.58708 -6.42504 -26.0757 8.61016 9.71615 43.4136 -28.4149 -116.701 5.23853 -0.0139208 -0.286947 3.45046 1.34252 8.07362 40.7894 4.15469 -24.3432 -45.3207 -32.482 117.971 -12.7923 -0.169663 1.52874 9.72202 3.98083 7.25075 0.846373 24.84 -20.8874 16.8799 -25.1375 3.78906 1.26364 -3.9953 -4.88244 -3.20406 11.5104 -13.0339 3.33341 16.0851 -4.32938 -13.9457 -21.6237 -2.67372 5.80239 -22.7472 -5.01032 
36.5261 11.9297 38.7155 -2.00442 80.9939 9.42707 0 0 0 2.451 -3.22862 0.272451 -0.94565 -0.904577 -0.354742 10.352 -61.0015 4.28555 -4.90106 17.1065 2.1027 -8.12628 1.54841 -6.36935 -28.4588 10.2413 12.975 45.0684 -28.9393 -115.768 4.40364 0.0331162 0.802722 5.16211 1.72359 9.70331 38.4893 4.10055 -28.5291 -45.375 -32.7034 118.069 -10.7252 -0.235447 2.50076 10.0012 4.03722 7.44743 0.924841 25.3669 -20.97 16.4237 -25.8472 3.79348 1.32405 -2.99914 -5.27829 -2.85647 11.8778 -13.0261 3.55818 15.6915 -4.73555 -15.4381 -20.7725 -2.84737 6.03917 -24.1229 -5.91169 
36.427 12.0452 38.8179 -1.51684 81.5034 8.84422 0 0 0 1.8887 -3.48273 0.351746 -0.470853 -0.976357 -0.26328 11.1952 -60.712 4.63354 -5.40695 16.7049 2.33222 -8.47538 1.58303 -6.39086 -30.8654 12.2803 17.3921 50.7425 -30.2184 -112.358 2.85183 -0.00163976 0.0927261 3.54779 1.48896 9.30549 44.5072 5.48983 -30.7184 -51.1197 -32.6568 113.514 -10.7891 -0.29891 3.15597 9.84007 3.57615 7.38493 0.861235 25.1258 -20.7393 16.105 -26.1261 3.76019 1.30055 -2.40741 -5.22709 -2.91729 10.9666 -13.131 3.35928 16.251 -5.00032 -14.8819 -20.8347 -2.75062 6.0595 -23.9948 -5.40993 
36.3847 12.0817 38.8846 -1.72091 81.8385 9.12072 0 0 0 1.70582 -4.04151 0.277175 -0.401254 -0.619902 -0.300434 13.0042 -59.8026 5.23413 -6.33404 16.1364 2.72877 -9.58583 1.65824 -6.2621 -33.2409 13.3371 22.4287 60.3691 -32.1848 -106.855 0.669631 0.00426017 0.65454 4.89382 1.64125 9.31321 46.0277 6.44556 -34.0662 -52.7548 -30.701 111.215 -11.7173 -0.343116 3.34289 9.85175 3.21867 7.31196 0.799605 25.0747 -20.6669 15.9195 -26.4803 3.76874 1.17571 -2.10603 -4.69536 -2.8753 10.4212 -13.1684 3.24598 16.6077 -5.08023 -13.9193 -21.0109 -2.5938 5.97908 -23.5969 -5.26719 
